<svg width="16" height="8" viewBox="0 0 16 8" fill="none" xmlns="http://www.w3.org/2000/svg">
<path d="M0.357125 5.85904C1.57191 5.85903 2.30817 5.56136 2.8153 5.18091C3.3443 4.78406 3.70651 4.23839 4.08291 3.57393C4.42938 2.96228 4.83588 2.1429 5.41509 1.53259C6.05766 0.855559 6.91479 0.412091 8.13709 0.412091C10.6016 0.412095 11.7803 2.20308 12.6978 3.50111C13.6839 4.8961 14.437 5.85904 16 5.85904L16 7.58801C13.4481 7.58801 12.2249 5.82743 11.2858 4.49899C10.2783 3.07358 9.58287 2.14107 8.13709 2.14107C7.40423 2.14107 6.99594 2.37847 6.66919 2.72274C6.27914 3.13372 6.01221 3.67611 5.58732 4.42617C5.19234 5.12343 4.68521 5.93954 3.85285 6.56397C2.99862 7.2048 1.88158 7.588 0.357125 7.58801L0.357125 5.85904Z" fill="#D5339C"/>
</svg>
