<svg width="72" height="39" viewBox="0 0 72 39" fill="none" xmlns="http://www.w3.org/2000/svg">
<g opacity="0.2" filter="url(#filter0_g_160_590)">
<path d="M38.5901 14.7365C38.59 14.9965 38.6592 15.2518 38.7906 15.4761C38.922 15.7004 39.1109 15.8856 39.3378 16.0126C39.5646 16.1397 39.8212 16.2039 40.0812 16.1987C40.3411 16.1934 40.5949 16.119 40.8165 15.983C41.3704 15.6437 42.0048 15.4581 42.6542 15.4455C43.3037 15.4328 43.9448 15.5935 44.5115 15.911C45.0782 16.2285 45.5501 16.6913 45.8784 17.2518C46.2068 17.8123 46.3799 18.4501 46.3798 19.0997C46.3796 19.7493 46.2064 20.3871 45.8778 20.9475C45.5493 21.5079 45.0773 21.9705 44.5104 22.2878C43.9436 22.6051 43.3025 22.7656 42.653 22.7527C42.0036 22.7399 41.3693 22.5541 40.8155 22.2146C40.5939 22.0786 40.34 22.0041 40.0801 21.9989C39.8202 21.9937 39.5636 22.0579 39.3367 22.1849C39.1099 22.3119 38.921 22.4972 38.7896 22.7215C38.6582 22.9458 38.589 23.2011 38.5891 23.4611L38.5901 26.9392C38.5901 27.4026 38.4989 27.8614 38.3215 28.2896C38.1442 28.7177 37.8843 29.1067 37.5566 29.4344C37.2289 29.7621 36.8399 30.022 36.4118 30.1993C35.9837 30.3766 35.5248 30.4679 35.0614 30.4679L31.5823 30.4679C31.3223 30.468 31.067 30.3988 30.8427 30.2674C30.6184 30.136 30.4331 29.9471 30.3061 29.7203C30.1791 29.4934 30.1149 29.2368 30.1201 28.9769C30.1253 28.7169 30.1998 28.4631 30.3358 28.2415C30.6751 27.6876 30.8607 27.0532 30.8733 26.4038C30.886 25.7543 30.7253 25.1132 30.4078 24.5465C30.0903 23.9798 29.6275 23.5079 29.067 23.1796C28.5065 22.8512 27.8687 22.6781 27.2191 22.6783C26.5695 22.6784 25.9317 22.8516 25.3713 23.1802C24.8109 23.5087 24.3483 23.9807 24.031 24.5476C23.7137 25.1144 23.5532 25.7555 23.5661 26.405C23.5789 27.0545 23.7647 27.6887 24.1042 28.2425C24.2402 28.4641 24.3146 28.718 24.3199 28.9779C24.3251 29.2378 24.2609 29.4944 24.1338 29.7213C24.0068 29.9481 23.8216 30.137 23.5973 30.2684C23.373 30.3998 23.1177 30.4691 22.8577 30.4689L19.3796 30.4679C18.9162 30.4679 18.4573 30.3766 18.0292 30.1993C17.6011 30.022 17.2121 29.7621 16.8844 29.4344C16.5567 29.1067 16.2968 28.7177 16.1195 28.2896C15.9421 27.8614 15.8509 27.4026 15.8509 26.9392L15.8509 23.4601C15.851 23.2001 15.7818 22.9448 15.6504 22.7205C15.519 22.4961 15.3301 22.3109 15.1033 22.1839C14.8764 22.0569 14.6198 21.9927 14.3599 21.9979C14.0999 22.0031 13.8461 22.0776 13.6245 22.2136C13.0706 22.5529 12.4362 22.7384 11.7868 22.7511C11.1373 22.7637 10.4962 22.603 9.9295 22.2856C9.36279 21.9681 8.89095 21.5053 8.56257 20.9448C8.23419 20.3843 8.06114 19.7464 8.06125 19.0968C8.06136 18.4472 8.23462 17.8094 8.56318 17.2491C8.89175 16.6887 9.36374 16.226 9.93056 15.9087C10.4974 15.5914 11.1385 15.431 11.788 15.4438C12.4375 15.4567 13.0717 15.6425 13.6255 15.982C13.8471 16.118 14.101 16.1924 14.3609 16.1976C14.6208 16.2028 14.8774 16.1386 15.1043 16.0116C15.3311 15.8846 15.52 15.6994 15.6514 15.4751C15.7828 15.2507 15.8521 14.9954 15.8519 14.7354L15.8509 11.2574C15.8509 10.794 15.9421 10.3351 16.1195 9.90698C16.2968 9.47886 16.5567 9.08985 16.8844 8.76217C17.2121 8.4345 17.6011 8.17458 18.0292 7.99725C18.4573 7.81992 18.9162 7.72865 19.3796 7.72866L22.8587 7.72866C23.1187 7.72853 23.374 7.79774 23.5983 7.92916C23.8227 8.06058 24.0079 8.24945 24.1349 8.4763C24.2619 8.70315 24.3261 8.95976 24.3209 9.2197C24.3157 9.47963 24.2412 9.73347 24.1052 9.95504C23.7659 10.509 23.5804 11.1433 23.5677 11.7928C23.555 12.4422 23.7157 13.0833 24.0332 13.6501C24.3507 14.2168 24.8135 14.6886 25.374 15.017C25.9345 15.3454 26.5724 15.5184 27.2219 15.5183C27.8715 15.5182 28.5094 15.3449 29.0697 15.0164C29.6301 14.6878 30.0927 14.2158 30.41 13.649C30.7273 13.0822 30.8878 12.441 30.875 11.7916C30.8621 11.1421 30.6763 10.5078 30.3368 9.95401C30.2008 9.73243 30.1264 9.47859 30.1212 9.21866C30.1159 8.95873 30.1802 8.70211 30.3072 8.47526C30.4342 8.24842 30.6194 8.05955 30.8437 7.92813C31.068 7.79671 31.3234 7.7275 31.5833 7.72763L35.0614 7.72866C35.5248 7.72865 35.9837 7.81992 36.4118 7.99725C36.8399 8.17458 37.2289 8.4345 37.5566 8.76217C37.8843 9.08985 38.1442 9.47886 38.3215 9.90698C38.4989 10.3351 38.5901 10.794 38.5901 11.2574L38.5901 14.7365Z" fill="white"/>
</g>
<path d="M42.6695 30.4679L54.8722 30.4679L58.3513 30.4679C58.8147 30.4679 59.2736 30.3766 59.7017 30.1993C60.1298 30.022 60.5188 29.762 60.8465 29.4344C61.1742 29.1067 61.4341 28.7177 61.6114 28.2896C61.7888 27.8614 61.88 27.4026 61.88 26.9392L61.8811 23.4611C61.8812 23.2011 61.812 22.9458 61.6806 22.7215C61.5491 22.4972 61.3603 22.3119 61.1334 22.1849C60.9066 22.0579 60.65 21.9937 60.39 21.9989C60.1301 22.0041 59.8763 22.0786 59.6547 22.2146C59.1009 22.5541 58.4666 22.7398 57.8171 22.7527C57.1677 22.7656 56.5265 22.6051 55.9597 22.2878C55.3929 21.9705 54.9209 21.5078 54.5923 20.9475C54.2637 20.3871 54.0905 19.7493 54.0904 19.0997C54.0903 18.4501 54.2633 17.8122 54.5917 17.2518C54.9201 16.6913 55.3919 16.2285 55.9586 15.911C56.5253 15.5935 57.1664 15.4328 57.8159 15.4455C58.4654 15.4581 59.0997 15.6437 59.6536 15.983C59.8752 16.119 60.1291 16.1934 60.389 16.1986C60.6489 16.2039 60.9055 16.1396 61.1324 16.0126C61.3592 15.8856 61.5481 15.7004 61.6795 15.4761C61.8109 15.2518 61.8802 14.9965 61.88 14.7365L61.88 11.2574C61.88 10.794 61.7888 10.3351 61.6114 9.90697C61.4341 9.47884 61.1742 9.08984 60.8465 8.76216C60.5188 8.43449 60.1298 8.17457 59.7017 7.99724C59.2736 7.81991 58.8147 7.72864 58.3513 7.72865L54.8732 7.72969L42.6695 7.72866C42.2061 7.72864 41.7472 7.81991 41.3191 7.99724C40.891 8.17457 40.502 8.43449 40.1743 8.76217C39.8466 9.08984 39.5867 9.47885 39.4094 9.90697C39.232 10.3351 39.1408 10.794 39.1408 11.2574L39.1398 14.7354C39.1396 14.9954 39.2088 15.2507 39.3403 15.4751C39.4717 15.6994 39.6606 15.8846 39.8874 16.0116C40.1142 16.1386 40.3709 16.2028 40.6308 16.1976C40.8907 16.1924 41.1446 16.118 41.3661 15.982C41.9199 15.6424 42.5542 15.4567 43.2037 15.4438C43.8532 15.4309 44.4943 15.5914 45.0611 15.9087C45.6279 16.226 46.0999 16.6887 46.4285 17.2491C46.7571 17.8094 46.9303 18.4472 46.9304 19.0968C46.9305 19.7464 46.7575 20.3843 46.4291 20.9448C46.1007 21.5052 45.6289 21.9681 45.0622 22.2855C44.4955 22.603 43.8544 22.7637 43.2049 22.7511C42.5554 22.7384 41.9211 22.5529 41.3672 22.2135C41.1456 22.0775 40.8918 22.0031 40.6318 21.9979C40.3719 21.9927 40.1153 22.0569 39.8884 22.1839C39.6616 22.3109 39.4727 22.4961 39.3413 22.7204C39.2099 22.9448 39.1407 23.2001 39.1408 23.4601L39.1408 26.9392C39.1408 27.4026 39.232 27.8614 39.4094 28.2896C39.5867 28.7177 39.8466 29.1067 40.1743 29.4344C40.502 29.762 40.891 30.022 41.3191 30.1993C41.7472 30.3766 42.2061 30.4679 42.6695 30.4679Z" stroke="#5E5E5E" stroke-width="0.5"/>
<defs>
<filter id="filter0_g_160_590" x="0.461524" y="0.127661" width="53.5184" height="37.9412" filterUnits="userSpaceOnUse" color-interpolation-filters="sRGB">
<feFlood flood-opacity="0" result="BackgroundImageFix"/>
<feBlend mode="normal" in="SourceGraphic" in2="BackgroundImageFix" result="shape"/>
<feTurbulence type="fractalNoise" baseFrequency="10 10" numOctaves="3" seed="7391" />
<feDisplacementMap in="shape" scale="15.199999809265137" xChannelSelector="R" yChannelSelector="G" result="displacedImage" width="100%" height="100%" />
<feMerge result="effect1_texture_160_590">
<feMergeNode in="displacedImage"/>
</feMerge>
</filter>
</defs>
</svg>
