<svg xmlns="http://www.w3.org/2000/svg" width="19" height="16" viewBox="0 0 19 16" fill="none">
  <style>
    :root { color: #000; } /* light mode -> black */
    @media (prefers-color-scheme: dark) {
      :root { color: #fff; } /* dark mode -> white */
    }
  </style>
  <path d="M0.000321509 7.23415C0.8698 7.23415 1.41463 6.8995 1.83239 6.38257C2.2835 5.82435 2.58999 5.0476 2.89193 4.15672C3.17557 3.31981 3.46683 2.33554 3.89707 1.59302C4.35272 0.806668 5.05179 0.139536 6.18136 0.139529C7.30771 0.139529 8.0141 0.802849 8.4812 1.58525C8.9239 2.32679 9.23101 3.3088 9.52807 4.14777C9.84369 5.03918 10.1611 5.81892 10.619 6.38003C11.0446 6.90147 11.5901 7.23415 12.4443 7.23415L12.4443 8.61804C11.1317 8.61804 10.2069 8.0639 9.54682 7.2551C8.91915 6.48596 8.53579 5.49188 8.22341 4.60963C7.89248 3.67498 7.64438 2.88328 7.29293 2.29459C6.96588 1.74679 6.63903 1.52342 6.18136 1.52342C5.72696 1.52342 5.40957 1.743 5.09446 2.28682C4.75392 2.87454 4.51997 3.6641 4.2025 4.60085C3.90333 5.48356 3.53268 6.48039 2.90882 7.2524C2.25154 8.06571 1.32339 8.61803 0.000321388 8.61804L0.000321509 7.23415Z" fill="currentColor"/>
  <path d="M5.5955 10.8799C6.56782 10.8799 7.15713 11.1182 7.56305 11.4227C7.98647 11.7403 8.27638 12.1771 8.57765 12.7089C8.85498 13.1985 9.18034 13.8543 9.64395 14.3428C10.1583 14.8847 10.8443 15.2397 11.8227 15.2397C13.7953 15.2397 14.7387 13.8061 15.4731 12.7672C16.2624 11.6506 16.8651 10.8799 18.1162 10.8799L18.1162 9.49599C16.0736 9.49599 15.0946 10.9052 14.343 11.9685C13.5365 13.1094 12.9799 13.8558 11.8227 13.8558C11.2361 13.8558 10.9093 13.6658 10.6477 13.3902C10.3355 13.0613 10.1219 12.6271 9.7818 12.0268C9.46566 11.4687 9.05974 10.8155 8.39352 10.3157C7.70978 9.80273 6.81569 9.496 5.5955 9.496L5.5955 10.8799Z" fill="currentColor"/>
</svg>
